<svg xmlns="http://www.w3.org/2000/svg" viewBox="0 0 512 512" width="512" height="512"><path d="M467 0H45C20.187 0 0 20.187 0 45v421c0 11.955 4.597 23.347 12.944 32.079C21.526 507.056 32.911 512 45 512h422c12.089 0 23.474-4.944 32.056-13.921C507.403 489.347 512 477.955 512 466V45c0-24.813-20.187-45-45-45zM241 482H45c-7.991 0-15-7.477-15-16V271h211v211zm0-241H30V45c0-8.271 6.729-15 15-15h196v211zm241 225c0 8.523-7.009 16-15 16H271V271h211v195zm0-225H271V30h196c8.271 0 15 6.729 15 15v196z" fill="#2283af"/><path d="M196 121h-45V76c0-8.284-6.716-15-15-15s-15 6.716-15 15v45H75c-8.284 0-15 6.716-15 15s6.716 15 15 15h46v45c0 8.284 6.716 15 15 15s15-6.716 15-15v-45h45c8.284 0 15-6.716 15-15s-6.716-15-15-15zM437 121H316c-8.284 0-15 6.716-15 15s6.716 15 15 15h121c8.284 0 15-6.716 15-15s-6.716-15-15-15zM196 361H75c-8.284 0-15 6.716-15 15s6.716 15 15 15h121c8.284 0 15-6.716 15-15s-6.716-15-15-15zM447.563 425.35L397.802 376l49.761-49.35c5.882-5.833 5.921-15.33.087-21.212-5.833-5.882-15.332-5.921-21.213-.088L376.5 354.875l-49.938-49.525c-5.882-5.833-15.379-5.794-21.213.088-5.834 5.882-5.794 15.379.088 21.213L355.198 376l-49.761 49.35c-5.882 5.833-5.921 15.331-.088 21.213 5.834 5.882 15.331 5.921 21.213.088l49.938-49.525 49.938 49.525c5.883 5.835 15.382 5.793 21.213-.088 5.833-5.882 5.794-15.379-.088-21.213z" fill="#2283af"/><circle cx="136" cy="316" r="15" fill="#2283af"/><circle cx="136" cy="436" r="15" fill="#2283af"/></svg>