<svg height="24" viewBox="0 0 24 24" width="24" xmlns="http://www.w3.org/2000/svg"><path d="M23.4 8.4L20 5.8V2c0-.6-.4-1-1-1h-5.4l-.9-.7c-.4-.4-1-.4-1.4 0l-.9.7H5c-.6 0-1 .4-1 1v3.8L.7 8.3S0 8.8 0 9.6V23c0 .6.4 1 1 1h22c.6 0 1-.4 1-1V9.5c0-.6-.6-1.1-.6-1.1zM5 7.3V2H19v10.4l-4.5 3.3-1.8-1.4c-.4-.4-1-.4-1.4 0l-1.8 1.4L5 12.4V7.3zM2 9.5L4 8v3.6l-2-1.5v-.6zm0 2.1l6.4 4.9L2 21.4v-9.8zM3.1 22l8.9-6.5 8.9 6.5H3.1zm18.9-.6l-6.4-4.9 6.4-4.9v9.8zm0-11.2l-2 1.5V8l2 1.5v.7z"/><path d="M7 5h10v1H7zM7 8h10v1H7zM7 11h10v1H7z"/></svg>