<svg xmlns="http://www.w3.org/2000/svg" viewBox="0 0 512 512" width="512" height="512"><path d="M241.939.002c-60.718 3.367-120.5 28.242-166.904 74.641-100.047 100.053-100.047 262.263 0 362.316 50.031 50.023 115.592 75.039 181.17 75.039 65.561 0 131.139-25.016 181.155-75.039 46.39-46.398 71.28-106.171 74.64-166.904L241.939.002zm215.467 245.647c-16.405-2.836-32.468-7.43-48.046-13.743-29.109-11.812-55.25-29.164-77.672-51.585-24.062-24.054-42.217-52.265-53.998-83.851a235.322 235.322 0 0 1-11.344-41.882l191.06 191.061zm-163.279-53.368l85.218 149.116H208.909l85.218-149.116zM184.331 341.397h-50.734l53.781-89.647 24.687 41.124-27.734 48.523zm237.935 80.469c-22.423 22.421-48.562 39.78-77.671 51.586-28.157 11.413-57.875 17.194-88.39 17.194-30.516 0-60.25-5.781-88.39-17.194-29.125-11.806-55.25-29.165-77.672-51.586-22.421-22.43-39.796-48.562-51.593-77.68-11.421-28.141-17.203-57.874-17.203-88.382 0-30.516 5.781-60.249 17.203-88.39 11.797-29.117 29.172-55.25 51.593-77.679 20.797-20.804 44.875-37.288 71.546-48.999 22.938-10.071 47.125-16.344 72.094-18.711l8.28 8.281c2.86 45.898 18.016 91.179 45.469 130.476L224.19 271.625l-36.812-61.375-91.5 152.499h320.248l-90.937-159.131c44.593 40.687 100.062 62.789 156.498 66.311l8.297 8.298a233.49 233.49 0 0 1-18.702 72.077c-11.719 26.68-28.22 50.757-49.016 71.562z" fill="#147eb8"/></svg>