<svg xmlns="http://www.w3.org/2000/svg" viewBox="0 0 512 512" width="512" height="512"><g fill="#147eb8"><path d="M431.952 412.913V10c0-5.523-4.478-10-10-10H49.956c-5.523 0-10 4.477-10 10v451.958l-.002.039c0 27.572 22.43 50.003 50 50.003l.088-.002H421.851l.196.002c27.57 0 50-22.431 50-50.003-.001-24.323-17.285-44.634-40.095-49.084zM338.954 20h72.999v23.251h-72.999V20zm0 43.251h72.999v348.748h-72.999V63.251zM245.953 20h73.002v23.251h-8.038c-5.523 0-10 4.477-10 10s4.477 10 10 10h8.038v348.748h-73.002V20zm-92.999 0h72.999v392h-72.999V20zm-33.039 443.538c-.803 15.794-13.903 28.425-29.891 28.462h-.006a1.368 1.368 0 0 1-.064.002c-16.533-.002-29.986-13.447-30-29.979l.002-.026V20h72.999v392H90.047l-.031.001-.063-.001c-5.523 0-10 4.477-10 10s4.477 10 10 10c.285 0 .568.014.852.022.241.007.482.008.723.02.248.013.494.038.742.057.261.02.524.035.783.062.201.021.4.052.602.077.301.038.603.071.901.117.146.022.288.053.433.077.351.06.703.119 1.051.19.07.015.139.033.208.049 13.04 2.799 22.972 14.105 23.667 27.79a30.194 30.194 0 0 1 0 3.077zM422.142 492l-.188-.002H129.927c.355-.472.694-.956 1.034-1.441.043-.063.088-.124.132-.187.3-.433.589-.874.876-1.316.105-.164.211-.327.314-.491.266-.421.525-.847.777-1.276.11-.187.217-.375.325-.564.245-.43.489-.86.723-1.298.083-.156.16-.315.241-.471.448-.863.871-1.74 1.27-2.631.088-.195.18-.387.264-.583.166-.385.321-.775.479-1.165.121-.304.244-.607.36-.914.14-.369.273-.74.405-1.112a62.917 62.917 0 0 0 .69-2.099c.122-.405.235-.814.348-1.224.085-.308.175-.614.254-.924.178-.698.34-1.401.488-2.11l.041-.194h42.039c5.523 0 10-4.477 10-10s-4.477-10-10-10h-42.039l-.043-.198a50.29 50.29 0 0 0-.484-2.098c-.083-.324-.177-.643-.266-.965a45.584 45.584 0 0 0-.335-1.179c-.11-.367-.23-.729-.349-1.093a43.625 43.625 0 0 0-.34-1.001 36.586 36.586 0 0 0-.762-2.02c-.16-.399-.318-.798-.488-1.192-.076-.177-.16-.35-.238-.525a48.96 48.96 0 0 0-1.297-2.691c-.08-.154-.155-.31-.236-.462a52.345 52.345 0 0 0-.719-1.29c-.111-.193-.221-.387-.334-.579a47.32 47.32 0 0 0-1.102-1.78c-.279-.431-.561-.86-.852-1.281-.063-.091-.128-.179-.191-.269-.323-.461-.646-.924-.985-1.374h292.119l.127-.001.378-.002c16.264 0 29.495 13.458 29.495 30.001 0 16.51-13.405 29.95-29.904 30.001z"/><path d="M209.954 452.001h-.235c-5.523 0-10 4.477-10 10s4.477 10 10 10h.235c5.522 0 10-4.477 10-10s-4.477-10-10-10zM282.184 43.251h-.236c-5.523 0-10 4.477-10 10s4.477 10 10 10h.236c5.524 0 10-4.477 10-10 0-5.522-4.476-10-10-10z"/></g></svg>